<svg xmlns:xlink="http://www.w3.org/1999/xlink" preserveAspectRatio="xMidYMid meet" data-bbox="16 6 19 17" width="20" height="34" viewBox="16 6 19 17" xmlns="http://www.w3.org/2000/svg" role="img">
    <g stroke="#FFFFFF" fill="#FFFFFF" stroke-width="0px" fill-opacity="0.6">
        <path d="M27.11 19.843l-.219.888c-.394 1.595-2.026 2.573-3.63 2.183l-1.294-.314c-1.609-.39-2.595-2.008-2.202-3.599l.255-1.033-3.059-.809c-.528-.14-.961-.703-.961-1.257v-2.95c0-.546.43-1.117.961-1.258L31 7.983V20.87l-3.89-1.028zm-1.932-.511l-.23.928c-.13.53-.679.858-1.212.729l-1.293-.315a.999.999 0 0 1-.736-1.2l.246-.995 3.225.853zm6.795 2.011a1.514 1.514 0 0 0 3.027 0V7.51C35 6.676 34.328 6 33.486 6c-.835 0-1.513.682-1.513 1.51v13.833z" fill-rule="evenodd" stroke="#FFFFFF" fill="#FFFFFF" stroke-width="0px" fill-opacity="0.6"></path>
    </g>
</svg>