<svg xmlns:xlink="http://www.w3.org/1999/xlink" preserveAspectRatio="xMidYMid meet" data-bbox="25 16.95 150 166.05" viewBox="25 16.95 150 166.05" height="166.05" width="150" xmlns="http://www.w3.org/2000/svg" data-type="color" role="img" aria-labelledby="comp-j7046uv3-svgtitle"><defs><style>#comp-j7046uv3 svg [data-color="1"] {fill: #07081F;}</style></defs><title id="comp-j7046uv3-svgtitle"></title>
    <g>
        <path d="M171.3 55.1h-10.2c4.2-4.3 6.6-9.7 6.6-14.2 0-8.1-6.5-17.5-24.7-17.5-12 0-25.7 8.2-36.2 18.1 3.4-6.3 8.9-13.4 14-18.5 1.4-1.4 1.4-3.7 0-5-1.4-1.4-3.7-1.4-5.1 0-5.3 5.3-11.9 13.7-15.9 21.7-4-8-10.6-16.4-15.9-21.7-1.4-1.4-3.7-1.4-5.1 0-1.4 1.4-1.4 3.7 0 5 5.1 5.1 10.6 12.2 14 18.5-10.4-9.9-24.1-18.1-36.2-18.1-18.1 0-24.6 9.5-24.6 17.5 0 4.5 2.4 9.9 6.6 14.2h-10c-2 0-3.6 1.6-3.6 3.6v28.4c0 2 1.6 3.6 3.6 3.6h142.8c2 0 3.6-1.6 3.6-3.6V58.7c-.1-2-1.7-3.6-3.7-3.6zm-116 0c-10 0-16.1-9.1-16.1-14.2 0-6.5 6.6-10.3 17.6-10.3 12.9 0 29.4 12.2 38.9 24.6H55.3v-.1zm89.3 0h-40.4c9.4-12.3 26-24.6 38.9-24.6 11 0 17.6 3.9 17.6 10.3-.1 5.2-6.2 14.3-16.1 14.3z" fill="#07081F" data-color="1"></path>
        <path d="M96.4 97.8H32.1v81.6c0 2 1.6 3.6 3.6 3.6h60.7V97.8z" fill="#07081F" data-color="1"></path>
        <path d="M103.5 97.8V183h60.7c2 0 3.6-1.6 3.6-3.6V97.8h-64.3z" fill="#07081F" data-color="1"></path>
    </g>
</svg>