<svg xmlns:xlink="http://www.w3.org/1999/xlink" preserveAspectRatio="xMidYMid meet" data-bbox="16 7 18 17" width="22" height="18" viewBox="16 7 18 17" xmlns="http://www.w3.org/2000/svg" role="img">
    <g stroke="#FFFFFF" fill="#FFFFFF" stroke-width="0px" fill-opacity="0.6">
        <path d="M33.71 11.865c.186-.425.29-.895.29-1.388C34 8.557 32.433 7 30.5 7S27 8.557 27 10.477c0 .493.104.963.29 1.388.817-.55 1.953-.892 3.21-.892s2.393.341 3.21.892zm-11.038.083c.21-.447.328-.946.328-1.471C23 8.557 21.433 7 19.5 7S16 8.557 16 10.477c0 .525.118 1.024.328 1.47.813-.602 1.934-.974 3.172-.974 1.238 0 2.359.372 3.172.975zM16 15.94c0 4.39 3.969 8.06 8.94 8.06s8.94-3.52 8.94-7.91L16 15.94z" fill-rule="evenodd" stroke="#FFFFFF" fill="#FFFFFF" stroke-width="0px" fill-opacity="0.6"></path>
    </g>
</svg>