<svg xmlns:xlink="http://www.w3.org/1999/xlink" preserveAspectRatio="xMidYMid meet" data-bbox="10.001 31.5 179.999 136.999" viewBox="10.001 31.5 179.999 136.999" height="136.999" width="179.999" xmlns="http://www.w3.org/2000/svg" data-type="color" role="img" aria-labelledby="comp-j7046uv6-svgtitle"><defs><style>#comp-j7046uv6 svg [data-color="1"] {fill: #07081F;}</style></defs><title id="comp-j7046uv6-svgtitle"></title>
    <g>
        <path d="M118.362 164.269c.187 1.504-.937 2.914-2.437 3.102-7.125.846-14.437 1.128-21.562 1.128-33.468 0-64.029-7.427-64.404-7.521-1.5-.376-2.344-1.88-1.969-3.384.375-1.504 1.875-2.35 3.375-1.974.469.094 44.436 10.812 84.091 6.299 1.313-.282 2.719.752 2.906 2.35zm71.623-37.417c-.094-2.068-1.875-3.573-3.844-3.479-9 .564-16.781 2.444-25.874 4.701-13.218 3.29-29.436 7.333-54.186 7.897l.281 7.333c25.405-.658 42.092-4.795 55.686-8.085 8.718-2.162 16.218-4.043 24.562-4.513 1.969 0 3.562-1.786 3.375-3.854zm-91.399 16.524h4.904l-.288-7.521h-6.346c-7.019 0-13.75-.386-17.884-.579l-.577 7.521c4.327.289 11.153.579 18.461.675.576-.096 1.153-.096 1.73-.096zm-23.534-8.345a245.605 245.605 0 0 1-21.843-2.726l-1.406 7.239c5.625.94 13.875 2.068 22.78 2.82l.469-7.333zm-64.779-10.999c-.75 1.88.094 4.043 1.969 4.795.187.094 3.75 1.598 10.031 3.573l1.875-7.145c-5.719-1.786-8.906-3.102-9.093-3.196-1.876-.754-4.033.092-4.782 1.973zm37.873 14.76l1.406-7.239c-9.562-1.786-17.624-3.949-22.218-5.359l-1.875 7.145c1.969.658 5.812 1.692 10.218 2.82 3.657.846 7.876 1.787 12.469 2.633zM31.967 93.024a3.701 3.701 0 0 0-4.452 2.604l-3.525 14.046c-.371 1.581.278 3.163 1.577 4l-6.864 25.766c-.093.465.186 1.023.649 1.116h.278a.892.892 0 0 0 .835-.651l6.771-25.673.007-.005c1.642.088 3.222-1.048 3.703-2.786l3.525-14.046c.65-1.859-.556-3.813-2.504-4.371zm23.398 5.226c-1.969-.376-3.937.94-4.312 2.914l-2.719 14.478c-.281 1.598.469 3.196 1.875 3.949l-5.25 26.418c-.094.47.187.94.75 1.128h.187c.469 0 .844-.282.937-.752l5.25-26.324c1.687 0 3.281-1.222 3.562-3.008l2.719-14.478c.282-2.069-1.031-3.949-2.999-4.325zm21.468 2.068c-2.062-.094-3.75 1.41-3.937 3.479l-.937 14.666c-.094 1.598.844 3.102 2.344 3.667l-1.969 26.888c0 .47.375.94.844.94h.094c.469 0 .844-.376.937-.846l1.969-26.794c1.687-.188 3.094-1.598 3.187-3.384l.937-14.666c.093-2.07-1.501-3.856-3.469-3.95zm28.03 11.398c-.937-.47-1.781-1.128-2.719-1.974-1.875-1.786-3.375-4.137-4.312-6.581-.469.658-.75 1.41-.656 2.35l.75 14.666c.094 1.598 1.219 3.008 2.719 3.384l1.031 26.888c0 .47.469.846.937.846.469 0 .937-.47.844-.94l-1.031-26.794c1.687-.376 2.906-1.974 2.812-3.761l-.375-8.084zm83.903-42.4c-.75-1.316-2.437-1.786-3.75-1.034l-27.655 15.7-3.75.94.375-.376 9.656-5.829c1.312-.752 1.687-2.444.937-3.761-.75-1.316-2.437-1.692-3.75-.94l-9.75 5.923c-.094.094-.187.188-.281.188l-15.937 13.162-19.406 11c-5.156 2.914-7.031 3.667-9.468 1.41-2.062-1.974-3.469-4.983-3.375-7.427 0-.564.094-1.504.656-1.88 3-2.538 19.874-15.794 20.062-15.888l11.437-8.931c5.437-4.231 1.875-13.162 1.5-14.102-.562-1.41-2.156-2.068-3.562-1.504s-2.062 2.162-1.5 3.573c.844 2.068 1.781 6.393.187 7.615l-11.437 8.931c-.469.376-6.844 5.359-12.468 9.777l-.281-8.273c4.5-6.957 8.25-11.094 9.562-11.752 3.187-1.692 6.375-1.504 6.375-1.504 1.5.094 2.812-1.034 2.906-2.538.094-1.504-1.031-2.82-2.531-2.914-.187 0-4.687-.282-9.281 2.068-4.406 2.256-10.968 12.41-12.187 14.384-.281.47-.469 1.034-.469 1.598l.375 13.256c-1.031.846-1.875 1.504-2.344 1.88-1.594 1.41-2.531 3.479-2.625 6.017-.094 3.949 1.875 8.555 5.156 11.564 2.25 2.068 4.406 2.82 6.562 2.82 3.281 0 6.469-1.786 9.375-3.479l19.593-11.094c.094-.094.281-.188.375-.282l5.344-4.419 15.656-4.137c.187-.094.469-.188.656-.282l27.937-15.888c1.407-.564 1.875-2.162 1.125-3.572zm-4.218-35.444c-.187-1.504-1.594-2.538-3.094-2.35-1.219.188-2.625.376-4.031.564-9.562 1.41-22.593 3.384-29.999 3.479-3.281 0-8.343-.752-13.687-1.504-9-1.316-17.437-2.538-22.124-1.128-3.469 1.128-8.812 5.923-15.656 14.29-4.406 5.359-9.656 12.598-10.593 14.948-1.781 4.795.844 27.076.844 27.358.187 1.128.281 2.444.375 3.855.656 7.145 1.594 16.076 6 20.119 1.594 1.504 3.375 2.068 5.062 2.162l-.281-5.641a2.231 2.231 0 0 1-1.031-.564c-2.812-2.632-3.656-11.094-4.219-16.64-.094-1.41-.281-2.726-.375-3.949-1.125-9.025-1.875-22.657-1.125-24.726.469-1.034 4.219-6.769 9.656-13.444 6.844-8.273 11.156-11.846 12.937-12.41 3.469-1.128 12.468.188 19.687 1.316 5.625.846 10.875 1.598 14.624 1.598 7.781-.094 21.093-2.068 30.749-3.479 1.406-.188 2.812-.376 4.031-.564 1.5-.375 2.531-1.785 2.25-3.29z" fill="#07081F" data-color="1"></path>
    </g>
</svg>